<svg version="1.1" id="Layer_1" xmlns="http://www.w3.org/2000/svg" xmlns:xlink="http://www.w3.org/1999/xlink" x="0px" y="0px"
	 width="100%" viewBox="0 0 1200 856" enable-background="new 0 0 1200 856" xml:space="preserve">
<path fill="#47704C" opacity="1.000000" stroke="none" 
	d="
M349.000000,857.000000 
	C233.068390,857.000000 117.136772,857.000000 1.000000,857.000000 
	C1.000000,727.644714 1.000000,598.289368 1.234082,468.764130 
	C6.025228,492.998291 19.914867,508.998413 44.097885,515.468994 
	C56.134338,518.689453 68.379944,518.765076 80.697227,517.045349 
	C110.746651,512.849792 130.531281,492.094452 131.648376,461.619659 
	C132.971573,425.522003 131.940613,389.338928 132.001785,353.192963 
	C132.008469,349.242035 130.148682,347.948425 126.467102,347.987946 
	C118.032356,348.078461 109.592262,347.832703 101.160736,348.016632 
	C92.015884,348.216125 92.005539,348.361145 92.003136,357.287109 
	C91.994034,391.101349 92.267212,424.918823 91.863853,458.728271 
	C91.690224,473.282196 86.580627,483.647858 72.696251,485.519470 
	C55.904640,487.782990 44.801071,483.572388 41.429905,465.507416 
	C40.580956,460.958160 40.083851,456.275116 40.062748,451.650665 
	C39.935822,423.833618 40.026203,396.015656 39.973301,368.198151 
	C39.955978,359.088501 35.128147,350.503387 27.065289,348.993713 
	C18.611221,347.410797 9.707308,348.230408 1.000000,348.000000 
	C1.000000,232.405838 1.000000,116.811684 1.000000,1.000000 
	C116.021919,1.000000 231.043976,1.000000 346.383911,1.336931 
	C345.801300,4.361883 344.117310,7.048804 344.113525,9.738087 
	C343.978363,106.059708 344.000214,202.381561 344.000397,298.703369 
	C344.000397,299.536591 344.095215,300.381775 343.988739,301.200928 
	C343.595856,304.223480 344.966217,305.674133 347.857391,306.482666 
	C354.409149,308.314819 360.857910,307.604767 367.339233,306.285797 
	C371.613861,305.415894 372.219055,302.378876 371.817078,298.749542 
	C371.563812,296.462799 371.035767,294.180267 371.034668,291.895630 
	C370.993835,207.572403 370.998444,123.249153 371.002808,38.925896 
	C371.003326,29.093960 372.087128,28.000338 381.688141,28.000322 
	C638.824097,27.999941 895.960022,28.002289 1153.095947,27.969862 
	C1155.886475,27.969511 1158.691162,27.622257 1161.464966,27.253794 
	C1170.595703,26.040831 1173.999146,28.974758 1173.999634,38.191692 
	C1174.000977,65.637978 1174.000000,93.084259 1174.000000,120.530540 
	C1174.000000,353.502686 1174.000000,586.474792 1173.999634,819.446960 
	C1173.999634,820.946777 1174.513184,822.733276 1173.878296,823.885132 
	C1172.654785,826.104919 1171.152832,828.640991 1169.072632,829.788513 
	C1166.927734,830.971741 1163.952148,830.986206 1161.348999,830.944641 
	C1147.895020,830.729919 1134.444336,830.067810 1120.991577,830.045410 
	C1059.049683,829.942383 997.107361,830.000000 935.165222,830.000000 
	C758.519653,830.000000 581.874146,829.988098 405.228607,830.042175 
	C397.942322,830.044434 390.632812,831.194214 383.375610,830.872620 
	C372.704346,830.399719 370.965790,828.725037 370.972351,818.762634 
	C371.022980,741.938477 370.978333,665.114319 371.043091,588.290222 
	C371.048096,582.336975 371.946960,576.383240 371.923492,570.431641 
	C371.890839,562.137878 369.628937,558.086853 364.106476,557.330444 
	C359.755951,556.734558 355.173523,557.158569 350.777557,557.749817 
	C345.997406,558.392822 343.955475,561.552612 343.958588,566.482117 
	C344.017303,659.804260 344.011627,753.126465 343.970856,846.448608 
	C343.968933,850.869629 345.084473,854.548462 349.000000,857.000000 
M203.993973,412.654358 
	C203.633453,408.261475 203.272934,403.868591 202.791977,398.008331 
	C204.081482,399.783356 204.554565,400.237976 204.794785,400.793304 
	C220.630600,437.401001 236.489227,473.998993 252.195724,510.662170 
	C253.613861,513.972534 255.571503,515.095825 258.989044,515.056702 
	C270.090332,514.929382 281.196594,515.152771 292.295929,514.956665 
	C300.264221,514.815857 300.992584,513.864807 300.993988,505.777679 
	C301.002716,455.963318 300.998962,406.148987 300.996338,356.334625 
	C300.996246,355.002045 300.960510,353.669464 300.944244,352.336853 
	C300.902100,348.884705 299.171356,347.084076 295.704468,347.064392 
	C291.373505,347.039795 287.024872,346.814056 282.714600,347.115143 
	C271.649872,347.888092 264.123108,354.404602 264.145996,364.209137 
	C264.217072,394.672333 264.709320,425.134888 265.129089,455.596466 
	C265.179138,459.229095 265.789856,462.854034 266.140656,466.482544 
	C259.377960,453.178040 253.696991,439.742645 247.944855,426.337799 
	C237.392532,401.746429 226.888214,377.133240 216.058578,352.664307 
	C215.146835,350.604279 211.985321,348.343872 209.783432,348.253143 
	C198.865677,347.803314 187.912979,347.824005 176.984848,348.124878 
	C168.356689,348.362427 168.004303,349.008179 168.003418,357.404144 
	C167.998215,407.218506 167.999741,457.032837 168.006546,506.847198 
	C168.006775,508.511932 167.752060,510.283936 168.238937,511.806824 
	C168.615005,512.983032 169.930466,514.677124 170.892380,514.720459 
	C179.993927,515.131226 189.118622,515.579590 198.217773,515.329834 
	C206.447464,515.104004 206.097519,513.662292 205.955566,505.904480 
	C205.392593,475.139008 204.664413,444.376617 203.993973,412.654358 
M807.901611,516.748230 
	C817.135559,516.753235 825.745056,514.677429 832.815796,508.440674 
	C834.013062,507.384613 835.053406,504.027344 834.423828,503.348022 
	C827.144470,495.493561 824.156311,485.646301 820.734009,475.907257 
	C816.608093,464.166260 813.018066,451.991760 801.086853,444.721466 
	C802.237915,443.629211 802.933105,442.694092 803.855957,442.134552 
	C821.746399,431.287628 829.367432,415.127991 827.902588,394.632385 
	C826.616394,376.635834 818.678589,362.708374 801.960632,354.428253 
	C791.098694,349.048492 779.457458,347.247681 767.646912,347.130371 
	C750.859802,346.963654 734.064636,347.709412 717.271545,347.984528 
	C709.040955,348.119385 709.007019,348.044556 709.005615,356.451691 
	C708.997131,406.582764 709.000854,456.713837 709.003235,506.844910 
	C709.003296,508.177094 708.589294,509.754578 709.155823,510.784607 
	C710.032837,512.379211 711.489624,514.672119 712.874390,514.801086 
	C720.468140,515.508057 728.206299,516.547913 735.723938,515.786194 
	C750.139709,514.325623 747.739807,516.784485 747.989136,503.329865 
	C748.060120,499.500580 747.998413,495.668854 748.000305,491.838257 
	C748.005737,481.012634 747.869995,470.183167 748.161804,459.365234 
	C748.209534,457.594727 750.031311,454.444672 751.224915,454.350067 
	C765.357178,453.229218 772.507080,455.631348 777.077148,468.776672 
	C780.678467,479.135437 784.177856,489.539307 788.155212,499.754700 
	C791.533752,508.432037 796.460876,515.812500 807.901611,516.748230 
M980.162415,484.606537 
	C981.467163,480.848022 983.519714,477.169342 983.931152,473.315430 
	C985.004395,463.261475 985.823914,453.134796 985.911804,443.029877 
	C986.162598,414.202026 986.005310,385.370636 985.994751,356.540619 
	C985.991699,348.184021 985.971252,348.114868 977.812073,348.009460 
	C970.206787,347.911163 962.596252,347.845123 954.993530,348.012848 
	C946.013977,348.210907 946.004517,348.326263 946.002625,357.461639 
	C945.995605,391.291077 946.028381,425.120544 945.970703,458.949890 
	C945.958557,466.080536 944.399048,472.931061 939.788513,478.542786 
	C932.827698,487.015167 923.127014,486.787628 913.593933,485.544739 
	C904.629883,484.376038 898.744690,478.778503 896.684998,470.052521 
	C895.208252,463.796204 894.182983,457.281281 894.118469,450.870026 
	C893.841797,423.375946 894.036926,395.877472 893.972839,368.380768 
	C893.946045,356.865875 888.264160,349.805939 877.014282,347.904083 
	C871.815735,347.025269 866.428162,347.106171 861.123413,347.055664 
	C855.072021,346.998016 853.993591,348.044800 854.039246,354.008728 
	C854.319824,390.644562 853.955322,427.306396 855.299011,463.904755 
	C856.050659,484.378357 866.000854,500.756165 884.928589,510.416443 
	C900.476013,518.351440 917.066772,519.363892 934.056396,517.095276 
	C954.766357,514.329895 970.515320,504.425079 980.162415,484.606537 
M1032.387207,475.160004 
	C1030.205811,473.955353 1028.140259,472.325714 1025.804077,471.689087 
	C1024.128540,471.232544 1021.099548,471.432434 1020.379761,472.494873 
	C1016.401550,478.366638 1012.164795,484.276581 1009.530090,490.785980 
	C1006.833191,497.448883 1006.563538,500.243103 1013.999939,503.666840 
	C1016.408936,504.775909 1018.591248,506.397827 1021.031311,507.415833 
	C1041.634766,516.011719 1062.891846,520.501892 1085.280273,516.931213 
	C1100.690918,514.473450 1114.202271,508.541229 1123.921875,495.569000 
	C1136.066650,479.360291 1136.345947,454.900787 1124.392578,438.620209 
	C1116.316895,427.620880 1105.137329,421.084808 1092.787476,416.044769 
	C1082.173096,411.713013 1071.502075,407.448029 1061.196289,402.451904 
	C1051.082642,397.548950 1050.264771,385.874939 1059.794067,380.256378 
	C1063.775757,377.908691 1069.345337,377.217743 1074.114624,377.441528 
	C1087.028442,378.047516 1099.204224,382.274963 1111.004395,387.279327 
	C1114.991699,388.970306 1117.177246,387.855591 1119.423706,384.910065 
	C1124.483643,378.275238 1127.555054,370.787201 1128.447144,362.553223 
	C1128.607666,361.070984 1126.967651,358.543549 1125.519043,357.865082 
	C1105.004395,348.256592 1083.622803,342.739319 1060.788940,346.039795 
	C1043.248047,348.575195 1028.623901,356.153198 1018.838440,371.676239 
	C1009.074768,387.164764 1009.810974,413.454865 1024.564453,426.378754 
	C1032.752563,433.551483 1041.712036,438.785339 1051.522095,443.033295 
	C1062.487183,447.781494 1073.536499,452.387360 1084.215088,457.723938 
	C1089.814941,460.522430 1092.066284,468.248779 1090.341797,474.245636 
	C1088.160278,481.832184 1082.316162,485.796692 1072.719360,485.963745 
	C1058.528687,486.210754 1045.702271,481.162994 1032.387207,475.160004 
M607.392517,481.352661 
	C606.953003,480.151245 606.109802,478.940216 606.138184,477.749969 
	C606.351624,468.782349 606.772278,459.819916 607.050171,450.853455 
	C607.161011,447.275909 609.419067,447.056000 612.182251,447.119690 
	C626.310791,447.445465 640.443604,447.609802 654.568970,448.031952 
	C658.676758,448.154694 660.571777,446.016357 660.776306,442.509186 
	C661.159973,435.929688 661.629944,429.271790 661.035156,422.740234 
	C660.328796,414.983490 659.858765,415.012360 652.121094,415.004364 
	C639.794983,414.991638 627.468933,415.008881 615.142822,414.995514 
	C607.032837,414.986725 607.099365,414.971619 606.979309,407.078339 
	C606.890930,401.266235 606.957764,395.416656 606.304749,389.657532 
	C605.557434,383.067017 606.115723,382.025116 612.860840,382.013123 
	C630.850159,381.981171 648.840942,381.875061 666.828125,382.072815 
	C671.237366,382.121277 673.517578,380.341553 673.848145,376.255707 
	C674.396423,369.478546 674.834473,362.677094 674.907227,355.881470 
	C674.969910,350.030060 673.733826,349.023010 667.746033,349.018127 
	C636.597717,348.992645 605.449341,348.992218 574.301025,349.016754 
	C567.797058,349.021881 567.053345,349.736023 567.027039,356.150696 
	C566.969543,370.142242 567.000000,384.134155 567.000671,398.125916 
	C567.002075,429.440826 566.942749,460.755920 567.041809,492.070526 
	C567.082825,505.019012 575.293518,514.781372 586.623962,514.894287 
	C610.607300,515.133362 634.596069,515.117493 658.579651,514.888367 
	C668.637146,514.792297 674.660950,509.906372 677.683289,500.388275 
	C678.481201,497.875397 678.809448,495.209717 679.304077,492.604858 
	C681.184021,482.704681 680.609436,482.035645 670.635071,481.994995 
	C649.820496,481.910156 629.006042,481.795532 607.392517,481.352661 
M535.068542,388.596039 
	C538.046326,378.042725 541.104309,367.511108 543.969543,356.927338 
	C545.499695,351.274963 544.813171,350.279053 539.254639,348.891998 
	C529.918457,346.562225 520.467896,346.650238 511.100067,348.332275 
	C509.490753,348.621216 507.608032,351.201294 507.085632,353.068268 
	C504.849182,361.061188 503.071991,369.182709 501.132141,377.258514 
	C494.884918,403.266357 488.657013,429.278839 482.383698,455.280396 
	C480.459137,463.257233 478.412598,471.204620 476.072479,480.562927 
	C475.056000,477.957336 474.432220,476.820068 474.165405,475.604492 
	C470.714172,459.881470 467.713684,444.047119 463.803192,428.440338 
	C458.433655,407.010590 452.534119,385.708984 446.538757,364.443481 
	C444.638336,357.702789 441.965698,350.732147 434.436340,348.367981 
	C423.960266,345.078522 413.688202,346.839111 404.083557,351.828217 
	C403.038025,352.371277 402.632477,355.624451 403.075684,357.321381 
	C406.602234,370.822815 410.408325,384.251190 414.123657,397.703369 
	C423.280212,430.856415 432.345398,464.035095 441.632019,497.151672 
	C445.431183,510.699646 452.615356,516.003845 466.717651,515.941162 
	C475.351746,515.902832 483.982513,515.309509 492.616638,515.021667 
	C499.955963,514.776917 499.914246,514.722961 501.931030,507.482635 
	C512.897705,468.111786 523.925354,428.757904 535.068542,388.596039 
M339.000000,489.500000 
	C339.011902,496.328674 339.043304,503.157410 339.026520,509.985992 
	C339.019470,512.851257 339.863281,514.933960 343.188049,514.950500 
	C353.451874,515.001648 363.716400,514.987122 373.979279,515.111938 
	C377.957825,515.160278 379.033783,513.177673 379.029083,509.510315 
	C378.962799,457.711700 378.951904,405.912933 379.036530,354.114380 
	C379.044098,349.472076 376.950104,347.938751 372.664276,347.987274 
	C364.230011,348.082733 355.792542,347.906952 347.358643,348.016174 
	C339.157806,348.122406 339.007690,348.345856 339.005829,356.588074 
	C338.995972,400.558716 339.000488,444.529358 339.000000,489.500000 
z"/>
<path fill="#0CBCC2" opacity="1.000000" stroke="none" 
	d="
M349.468658,857.000000 
	C345.084473,854.548462 343.968933,850.869629 343.970856,846.448608 
	C344.011627,753.126465 344.017303,659.804260 343.958588,566.482117 
	C343.955475,561.552612 345.997406,558.392822 350.777557,557.749817 
	C355.173523,557.158569 359.755951,556.734558 364.106476,557.330444 
	C369.628937,558.086853 371.890839,562.137878 371.923492,570.431641 
	C371.946960,576.383240 371.048096,582.336975 371.043091,588.290222 
	C370.978333,665.114319 371.022980,741.938477 370.972351,818.762634 
	C370.965790,828.725037 372.704346,830.399719 383.375610,830.872620 
	C390.632812,831.194214 397.942322,830.044434 405.228607,830.042175 
	C581.874146,829.988098 758.519653,830.000000 935.165222,830.000000 
	C997.107361,830.000000 1059.049683,829.942383 1120.991577,830.045410 
	C1134.444336,830.067810 1147.895020,830.729919 1161.348999,830.944641 
	C1163.952148,830.986206 1166.927734,830.971741 1169.072632,829.788513 
	C1171.152832,828.640991 1172.654785,826.104919 1173.878296,823.885132 
	C1174.513184,822.733276 1173.999634,820.946777 1173.999634,819.446960 
	C1174.000000,586.474792 1174.000000,353.502686 1174.000000,120.530540 
	C1174.000000,93.084259 1174.000977,65.637978 1173.999634,38.191692 
	C1173.999146,28.974758 1170.595703,26.040831 1161.464966,27.253794 
	C1158.691162,27.622257 1155.886475,27.969511 1153.095947,27.969862 
	C895.960022,28.002289 638.824097,27.999941 381.688141,28.000322 
	C372.087128,28.000338 371.003326,29.093960 371.002808,38.925896 
	C370.998444,123.249153 370.993835,207.572403 371.034668,291.895630 
	C371.035767,294.180267 371.563812,296.462799 371.817078,298.749542 
	C372.219055,302.378876 371.613861,305.415894 367.339233,306.285797 
	C360.857910,307.604767 354.409149,308.314819 347.857391,306.482666 
	C344.966217,305.674133 343.595856,304.223480 343.988739,301.200928 
	C344.095215,300.381775 344.000397,299.536591 344.000397,298.703369 
	C344.000214,202.381561 343.978363,106.059708 344.113525,9.738087 
	C344.117310,7.048804 345.801300,4.361883 346.850891,1.336931 
	C631.618164,1.000000 916.236328,1.000000 1201.000000,1.000000 
	C1201.000000,143.593811 1201.000000,286.187653 1201.000000,428.781525 
	C1201.000000,571.423889 1201.000000,714.066284 1201.000000,857.000000 
	C917.312500,857.000000 633.624939,857.000000 349.468658,857.000000 
z"/>
<path fill="#0E2F50" opacity="1.000000" stroke="none" 
	d="
M1.000000,348.468658 
	C9.707308,348.230408 18.611221,347.410797 27.065289,348.993713 
	C35.128147,350.503387 39.955978,359.088501 39.973301,368.198151 
	C40.026203,396.015656 39.935822,423.833618 40.062748,451.650665 
	C40.083851,456.275116 40.580956,460.958160 41.429905,465.507416 
	C44.801071,483.572388 55.904640,487.782990 72.696251,485.519470 
	C86.580627,483.647858 91.690224,473.282196 91.863853,458.728271 
	C92.267212,424.918823 91.994034,391.101349 92.003136,357.287109 
	C92.005539,348.361145 92.015884,348.216125 101.160736,348.016632 
	C109.592262,347.832703 118.032356,348.078461 126.467102,347.987946 
	C130.148682,347.948425 132.008469,349.242035 132.001785,353.192963 
	C131.940613,389.338928 132.971573,425.522003 131.648376,461.619659 
	C130.531281,492.094452 110.746651,512.849792 80.697227,517.045349 
	C68.379944,518.765076 56.134338,518.689453 44.097885,515.468994 
	C19.914867,508.998413 6.025228,492.998291 1.234082,468.297150 
	C1.000000,428.312439 1.000000,388.624878 1.000000,348.468658 
z"/>
<path fill="#0E2F50" opacity="1.000000" stroke="none" 
	d="
M203.995712,413.133728 
	C204.664413,444.376617 205.392593,475.139008 205.955566,505.904480 
	C206.097519,513.662292 206.447464,515.104004 198.217773,515.329834 
	C189.118622,515.579590 179.993927,515.131226 170.892380,514.720459 
	C169.930466,514.677124 168.615005,512.983032 168.238937,511.806824 
	C167.752060,510.283936 168.006775,508.511932 168.006546,506.847198 
	C167.999741,457.032837 167.998215,407.218506 168.003418,357.404144 
	C168.004303,349.008179 168.356689,348.362427 176.984848,348.124878 
	C187.912979,347.824005 198.865677,347.803314 209.783432,348.253143 
	C211.985321,348.343872 215.146835,350.604279 216.058578,352.664307 
	C226.888214,377.133240 237.392532,401.746429 247.944855,426.337799 
	C253.696991,439.742645 259.377960,453.178040 266.140656,466.482544 
	C265.789856,462.854034 265.179138,459.229095 265.129089,455.596466 
	C264.709320,425.134888 264.217072,394.672333 264.145996,364.209137 
	C264.123108,354.404602 271.649872,347.888092 282.714600,347.115143 
	C287.024872,346.814056 291.373505,347.039795 295.704468,347.064392 
	C299.171356,347.084076 300.902100,348.884705 300.944244,352.336853 
	C300.960510,353.669464 300.996246,355.002045 300.996338,356.334625 
	C300.998962,406.148987 301.002716,455.963318 300.993988,505.777679 
	C300.992584,513.864807 300.264221,514.815857 292.295929,514.956665 
	C281.196594,515.152771 270.090332,514.929382 258.989044,515.056702 
	C255.571503,515.095825 253.613861,513.972534 252.195724,510.662170 
	C236.489227,473.998993 220.630600,437.401001 204.794785,400.793304 
	C204.554565,400.237976 204.081482,399.783356 202.791977,398.008331 
	C203.272934,403.868591 203.633453,408.261475 203.995712,413.133728 
z"/>
<path fill="#0E2F50" opacity="1.000000" stroke="none" 
	d="
M807.493896,516.633911 
	C796.460876,515.812500 791.533752,508.432037 788.155212,499.754700 
	C784.177856,489.539307 780.678467,479.135437 777.077148,468.776672 
	C772.507080,455.631348 765.357178,453.229218 751.224915,454.350067 
	C750.031311,454.444672 748.209534,457.594727 748.161804,459.365234 
	C747.869995,470.183167 748.005737,481.012634 748.000305,491.838257 
	C747.998413,495.668854 748.060120,499.500580 747.989136,503.329865 
	C747.739807,516.784485 750.139709,514.325623 735.723938,515.786194 
	C728.206299,516.547913 720.468140,515.508057 712.874390,514.801086 
	C711.489624,514.672119 710.032837,512.379211 709.155823,510.784607 
	C708.589294,509.754578 709.003296,508.177094 709.003235,506.844910 
	C709.000854,456.713837 708.997131,406.582764 709.005615,356.451691 
	C709.007019,348.044556 709.040955,348.119385 717.271545,347.984528 
	C734.064636,347.709412 750.859802,346.963654 767.646912,347.130371 
	C779.457458,347.247681 791.098694,349.048492 801.960632,354.428253 
	C818.678589,362.708374 826.616394,376.635834 827.902588,394.632385 
	C829.367432,415.127991 821.746399,431.287628 803.855957,442.134552 
	C802.933105,442.694092 802.237915,443.629211 801.086853,444.721466 
	C813.018066,451.991760 816.608093,464.166260 820.734009,475.907257 
	C824.156311,485.646301 827.144470,495.493561 834.423828,503.348022 
	C835.053406,504.027344 834.013062,507.384613 832.815796,508.440674 
	C825.745056,514.677429 817.135559,516.753235 807.493896,516.633911 
M748.000000,392.510406 
	C748.008179,400.987823 748.095764,409.466278 747.987061,417.942200 
	C747.941101,421.526123 749.355774,423.112122 752.994873,423.007904 
	C757.977539,422.865143 762.978699,423.174500 767.951050,422.905304 
	C778.681152,422.324341 784.816528,417.176392 786.646118,407.036163 
	C787.257935,403.645569 787.023499,400.077942 786.963013,396.594910 
	C786.770630,385.518585 779.505188,378.231079 768.543213,378.019836 
	C766.216858,377.975006 763.889099,378.000977 761.561951,378.000610 
	C748.000000,377.998627 748.000000,377.999237 748.000000,392.510406 
z"/>
<path fill="#0E2F50" opacity="1.000000" stroke="none" 
	d="
M980.015259,484.953308 
	C970.515320,504.425079 954.766357,514.329895 934.056396,517.095276 
	C917.066772,519.363892 900.476013,518.351440 884.928589,510.416443 
	C866.000854,500.756165 856.050659,484.378357 855.299011,463.904755 
	C853.955322,427.306396 854.319824,390.644562 854.039246,354.008728 
	C853.993591,348.044800 855.072021,346.998016 861.123413,347.055664 
	C866.428162,347.106171 871.815735,347.025269 877.014282,347.904083 
	C888.264160,349.805939 893.946045,356.865875 893.972839,368.380768 
	C894.036926,395.877472 893.841797,423.375946 894.118469,450.870026 
	C894.182983,457.281281 895.208252,463.796204 896.684998,470.052521 
	C898.744690,478.778503 904.629883,484.376038 913.593933,485.544739 
	C923.127014,486.787628 932.827698,487.015167 939.788513,478.542786 
	C944.399048,472.931061 945.958557,466.080536 945.970703,458.949890 
	C946.028381,425.120544 945.995605,391.291077 946.002625,357.461639 
	C946.004517,348.326263 946.013977,348.210907 954.993530,348.012848 
	C962.596252,347.845123 970.206787,347.911163 977.812073,348.009460 
	C985.971252,348.114868 985.991699,348.184021 985.994751,356.540619 
	C986.005310,385.370636 986.162598,414.202026 985.911804,443.029877 
	C985.823914,453.134796 985.004395,463.261475 983.931152,473.315430 
	C983.519714,477.169342 981.467163,480.848022 980.015259,484.953308 
z"/>
<path fill="#0E2F50" opacity="1.000000" stroke="none" 
	d="
M1032.717041,475.339020 
	C1045.702271,481.162994 1058.528687,486.210754 1072.719360,485.963745 
	C1082.316162,485.796692 1088.160278,481.832184 1090.341797,474.245636 
	C1092.066284,468.248779 1089.814941,460.522430 1084.215088,457.723938 
	C1073.536499,452.387360 1062.487183,447.781494 1051.522095,443.033295 
	C1041.712036,438.785339 1032.752563,433.551483 1024.564453,426.378754 
	C1009.810974,413.454865 1009.074768,387.164764 1018.838440,371.676239 
	C1028.623901,356.153198 1043.248047,348.575195 1060.788940,346.039795 
	C1083.622803,342.739319 1105.004395,348.256592 1125.519043,357.865082 
	C1126.967651,358.543549 1128.607666,361.070984 1128.447144,362.553223 
	C1127.555054,370.787201 1124.483643,378.275238 1119.423706,384.910065 
	C1117.177246,387.855591 1114.991699,388.970306 1111.004395,387.279327 
	C1099.204224,382.274963 1087.028442,378.047516 1074.114624,377.441528 
	C1069.345337,377.217743 1063.775757,377.908691 1059.794067,380.256378 
	C1050.264771,385.874939 1051.082642,397.548950 1061.196289,402.451904 
	C1071.502075,407.448029 1082.173096,411.713013 1092.787476,416.044769 
	C1105.137329,421.084808 1116.316895,427.620880 1124.392578,438.620209 
	C1136.345947,454.900787 1136.066650,479.360291 1123.921875,495.569000 
	C1114.202271,508.541229 1100.690918,514.473450 1085.280273,516.931213 
	C1062.891846,520.501892 1041.634766,516.011719 1021.031311,507.415833 
	C1018.591248,506.397827 1016.408936,504.775909 1013.999939,503.666840 
	C1006.563538,500.243103 1006.833191,497.448883 1009.530090,490.785980 
	C1012.164795,484.276581 1016.401550,478.366638 1020.379761,472.494873 
	C1021.099548,471.432434 1024.128540,471.232544 1025.804077,471.689087 
	C1028.140259,472.325714 1030.205811,473.955353 1032.717041,475.339020 
z"/>
<path fill="#0E2F50" opacity="1.000000" stroke="none" 
	d="
M607.791992,481.522919 
	C629.006042,481.795532 649.820496,481.910156 670.635071,481.994995 
	C680.609436,482.035645 681.184021,482.704681 679.304077,492.604858 
	C678.809448,495.209717 678.481201,497.875397 677.683289,500.388275 
	C674.660950,509.906372 668.637146,514.792297 658.579651,514.888367 
	C634.596069,515.117493 610.607300,515.133362 586.623962,514.894287 
	C575.293518,514.781372 567.082825,505.019012 567.041809,492.070526 
	C566.942749,460.755920 567.002075,429.440826 567.000671,398.125916 
	C567.000000,384.134155 566.969543,370.142242 567.027039,356.150696 
	C567.053345,349.736023 567.797058,349.021881 574.301025,349.016754 
	C605.449341,348.992218 636.597717,348.992645 667.746033,349.018127 
	C673.733826,349.023010 674.969910,350.030060 674.907227,355.881470 
	C674.834473,362.677094 674.396423,369.478546 673.848145,376.255707 
	C673.517578,380.341553 671.237366,382.121277 666.828125,382.072815 
	C648.840942,381.875061 630.850159,381.981171 612.860840,382.013123 
	C606.115723,382.025116 605.557434,383.067017 606.304749,389.657532 
	C606.957764,395.416656 606.890930,401.266235 606.979309,407.078339 
	C607.099365,414.971619 607.032837,414.986725 615.142822,414.995514 
	C627.468933,415.008881 639.794983,414.991638 652.121094,415.004364 
	C659.858765,415.012360 660.328796,414.983490 661.035156,422.740234 
	C661.629944,429.271790 661.159973,435.929688 660.776306,442.509186 
	C660.571777,446.016357 658.676758,448.154694 654.568970,448.031952 
	C640.443604,447.609802 626.310791,447.445465 612.182251,447.119690 
	C609.419067,447.056000 607.161011,447.275909 607.050171,450.853455 
	C606.772278,459.819916 606.351624,468.782349 606.138184,477.749969 
	C606.109802,478.940216 606.953003,480.151245 607.791992,481.522919 
z"/>
<path fill="#0E2F50" opacity="1.000000" stroke="none" 
	d="
M535.000244,388.997131 
	C523.925354,428.757904 512.897705,468.111786 501.931030,507.482635 
	C499.914246,514.722961 499.955963,514.776917 492.616638,515.021667 
	C483.982513,515.309509 475.351746,515.902832 466.717651,515.941162 
	C452.615356,516.003845 445.431183,510.699646 441.632019,497.151672 
	C432.345398,464.035095 423.280212,430.856415 414.123657,397.703369 
	C410.408325,384.251190 406.602234,370.822815 403.075684,357.321381 
	C402.632477,355.624451 403.038025,352.371277 404.083557,351.828217 
	C413.688202,346.839111 423.960266,345.078522 434.436340,348.367981 
	C441.965698,350.732147 444.638336,357.702789 446.538757,364.443481 
	C452.534119,385.708984 458.433655,407.010590 463.803192,428.440338 
	C467.713684,444.047119 470.714172,459.881470 474.165405,475.604492 
	C474.432220,476.820068 475.056000,477.957336 476.072479,480.562927 
	C478.412598,471.204620 480.459137,463.257233 482.383698,455.280396 
	C488.657013,429.278839 494.884918,403.266357 501.132141,377.258514 
	C503.071991,369.182709 504.849182,361.061188 507.085632,353.068268 
	C507.608032,351.201294 509.490753,348.621216 511.100067,348.332275 
	C520.467896,346.650238 529.918457,346.562225 539.254639,348.891998 
	C544.813171,350.279053 545.499695,351.274963 543.969543,356.927338 
	C541.104309,367.511108 538.046326,378.042725 535.000244,388.997131 
z"/>
<path fill="#0E2F50" opacity="1.000000" stroke="none" 
	d="
M339.000000,489.000000 
	C339.000488,444.529358 338.995972,400.558716 339.005829,356.588074 
	C339.007690,348.345856 339.157806,348.122406 347.358643,348.016174 
	C355.792542,347.906952 364.230011,348.082733 372.664276,347.987274 
	C376.950104,347.938751 379.044098,349.472076 379.036530,354.114380 
	C378.951904,405.912933 378.962799,457.711700 379.029083,509.510315 
	C379.033783,513.177673 377.957825,515.160278 373.979279,515.111938 
	C363.716400,514.987122 353.451874,515.001648 343.188049,514.950500 
	C339.863281,514.933960 339.019470,512.851257 339.026520,509.985992 
	C339.043304,503.157410 339.011902,496.328674 339.000000,489.000000 
z"/>
<path fill="#47704C" opacity="1.000000" stroke="none" 
	d="
M748.000000,392.013550 
	C748.000000,377.999237 748.000000,377.998627 761.561951,378.000610 
	C763.889099,378.000977 766.216858,377.975006 768.543213,378.019836 
	C779.505188,378.231079 786.770630,385.518585 786.963013,396.594910 
	C787.023499,400.077942 787.257935,403.645569 786.646118,407.036163 
	C784.816528,417.176392 778.681152,422.324341 767.951050,422.905304 
	C762.978699,423.174500 757.977539,422.865143 752.994873,423.007904 
	C749.355774,423.112122 747.941101,421.526123 747.987061,417.942200 
	C748.095764,409.466278 748.008179,400.987823 748.000000,392.013550 
z"/>
</svg>